# AST/ASF file generated using VICON BodyLanguage
# -----------------------------------------------
:version 1.10
:name VICON
:units
  mass 1.0
  length 0.45
  angle deg
:documentation
   .ast/.asf automatically generated from VICON data using
   VICON BodyBuilder and BodyLanguage model FoxedUp or BRILLIANT.MOD
:root
   order TX TY TZ RX RY RZ
   axis XYZ
   position 0 0 0  
   orientation 0 -0 0 
:bonedata
  begin
     id 1 
     name lhipjoint
     direction 0.432694 -0.693742 0.575759 
     length 2.19277 
     axis 0 -0 0  XYZ
  end
  begin
     id 2 
     name lfemur
     direction 0.34202 -0.939693 0  
     length 6.69022  
     axis 0 -0 20  XYZ
    dof rx ry rz
    limits (-160.0 20.0)
           (-70.0 70.0)
           (-60.0 70.0)
  end
  begin
     id 3 
     name ltibia
     direction 0.34202 -0.939693 0   
     length 6.50337   
     axis 0 -0 20   XYZ
    dof rx
    limits (-10.0 170.0)
  end
  begin
     id 4 
     name lfoot
     direction 0.158999 -0.435969 0.885805   
     length 2.70564   
     axis -90 -1.13533e-015 20   XYZ
    dof rx rz
    limits (-45.0 90.0)
           (-70.0 20.0)
  end
  begin
     id 5 
     name ltoes
     direction -0.00592919 0.00964381 0.999936   
     length 1.29929   
     axis -90 -1.13533e-015 20   XYZ
    dof rx
    limits (-90.0 20.0)
  end
  begin
     id 6 
     name rhipjoint
     direction -0.414359 -0.700339 0.581234   
     length 2.17212  
     axis 0 -0 0  XYZ 
  end
  begin
     id 7 
     name rfemur
     direction -0.34202 -0.939693 0   
     length 7.17659   
     axis 0 -0 -20   XYZ
    dof rx ry rz
    limits (-160.0 20.0)
           (-70.0 70.0)
           (-70.0 60.0)
  end
  begin
     id 8 
     name rtibia
     direction -0.34202 -0.939693 0   
     length 6.36669   
     axis 0 -0 -20   XYZ
    dof rx
    limits (-10.0 170.0)
 end
 begin
     id 9 
     name rfoot
     direction -0.137064 -0.37658 0.916188   
     length 2.22351  
     axis -90 1.13533e-015 -20   XYZ
    dof rx rz
    limits (-45.0 90.0)
           (-20.0 70.0)
  end
  begin
     id 10 
     name rtoes
     direction -0.000784077 -0.00289101 0.999996   
     length 1.09522   
     axis -90 1.13533e-015 -20   XYZ
    dof rx
    limits (-90.0 20.0)
  end
  begin
     id 11 
     name lowerback
     direction -0.0176242 0.984912 -0.172157   
     length 1.65301   
     axis 0 -0 0   XYZ
    dof rx ry rz
    limits (-20.0 45.0)
           (-30.0 30.0)
           (-30.0 30.0)
  end
  begin
     id 12 
     name upperback
     direction -0.00218128 0.998776 -0.0494072   
     length 1.67776   
     axis 0 -0 0   XYZ
    dof rx ry rz
    limits (-20.0 45.0)
           (-30.0 30.0)
           (-30.0 30.0)
  end
  begin
     id 13 
     name thorax
     direction 0.00544186 0.999658 0.0255711   
     length 1.72293   
     axis 0 -0 0   XYZ
    dof rx ry rz
    limits (-20.0 45.0)
           (-30.0 30.0)
           (-30.0 30.0)
  end
  begin
     id 14 
     name lowerneck
     direction -0.105325 0.983841 0.144785   
     length 2.14226   
     axis 0 -0 0   XYZ
    dof rx ry rz
    limits (-20.0 45.0)
           (-30.0 30.0)
           (-30.0 30.0)
  end
  begin
     id 15 
     name upperneck
     direction 0.0547957 0.988053 -0.144041   
     length 2.17508   
     axis 0 -0 0   XYZ
    dof rx ry rz
    limits (-20.0 45.0)
           (-30.0 30.0)
           (-30.0 30.0)
  end
  begin
     id 16
     name head
     direction 0.0247488 0.997534 -0.0656813  
     length 2.20048  
     axis 0 -0 0   XYZ
    dof rx ry rz
    limits (-20.0 45.0)
           (-30.0 30.0)
           (-30.0 30.0)
  end
  begin
     id 17 
     name lclavicle
     direction 0.820559 0.567247 -0.0701026  
     length 4.09615  
     axis 0 -0 0   XYZ
    dof ry rz
    limits (-20.0 10.0)
           (0.0 20.0)
  end
  begin
     id 18 
     name lhumerus
     direction 0.999977 -0.0067566 -9.96392e-005   
     length 4.59333   
     axis -180 -30 -90   XYZ
    dof rx ry rz
    limits (-60.0 90.0)
           (-90.0 90.0)
           (-90.0 90.0)
  end
  begin
     id 19
     name lradius
     direction 1 -4.48982e-011 -2.53425e-027   
     length 2.81151   
     axis -180 -30 -90   XYZ
    dof rx
    limits (-10.0 170.0)
  end
  begin
     id 20
     name lwrist
     direction 1 -4.48939e-011 -7.39254e-028   
     length 1.40576   
     axis 2.56395e-016 90 90   XYZ
    dof ry
    limits (-180.0 0.0)
 end
  begin
     id 21 
     name lhand
     direction 1 -4.48939e-011 -1.47851e-027   
     length 0.895651   
     axis 9.43423e-016 90 90   XYZ
    dof rx rz
    limits (-90.0 90.0)
           (-45.0 45.0)
  end
  begin
     id 22 
     name lfingers
     direction 1 -4.48978e-011 -2.95702e-027   
     length 0.722097   
     axis 1.88685e-015 90 90   XYZ
    dof rx
    limits (0.0 90.0)
  end
  begin
     id 23
     name lthumb
     direction 0.707107 -6.34931e-011 0.707107   
     length 1.03679   
     axis -90 45 -9.86935e-015   XYZ
    dof rx rz
    limits (-45.0 45.0)
           (-45.0 45.0)
  end
  begin
     id 24 
     name rclavicle
     direction -0.831414 0.553102 -0.0531864   
     length 4.24872  
     axis 0 -0 0   XYZ 
    dof ry rz
    limits (-10.0 20.0)
           (-20.0 0.0)
  end
  begin
     id 25 
     name rhumerus
     direction -0.999916 -0.000939607 0.0129331  
     length 4.74834   
     axis -180 30 90   XYZ
    dof rx ry rz
    limits (-90.0 60.0)
           (-90.0 90.0)
           (-90.0 90.0)
  end
  begin
     id 26 
     name rradius
     direction -1 -4.48956e-011 -1.31752e-027   
     length 2.79907   
     axis -180 30 90   XYZ
    dof rx
    limits (-10.0 170.0)
  end
  begin
     id 27 
     name rwrist
     direction -1 -4.4897e-011 -7.39254e-028   
     length 1.39954   
     axis 2.56395e-016 -90 -90   XYZ
    dof ry
    limits (-180.0 0.0)
  end
  begin
     id 28
     name rhand
     direction -0.999997 -0.00250697 0.000800838   
     length 0.953304   
     axis 9.43423e-016 -90 -90   XYZ
    dof rx rz
    limits (-90.0 90.0)
           (-45.0 45.0)
  end
  begin
     id 29
     name rfingers
     direction -1 -4.48954e-011 -2.95702e-027   
     length 0.763342   
     axis 1.88685e-015 -90 -90   XYZ
    dof rx
    limits (0.0 90.0)
  end
  begin
     id 30
     name rthumb
     direction -0.709701 -0.00217037 0.7045   
     length 1.10115   
     axis -90 -45 9.86935e-015   XYZ
    dof rx rz
    limits (-45.0 45.0)
           (-45.0 45.0)
  end
:hierarchy
  begin
    root lhipjoint rhipjoint lowerback
    lhipjoint lfemur
    lfemur ltibia
    ltibia lfoot
    lfoot ltoes
    rhipjoint rfemur
    rfemur rtibia
    rtibia rfoot
    rfoot rtoes
    lowerback upperback
    upperback thorax
    thorax lowerneck lclavicle rclavicle
    lowerneck upperneck
    upperneck head
    lclavicle lhumerus
    lhumerus lradius
    lradius lwrist
    lwrist lhand lthumb
    lhand lfingers
    rclavicle rhumerus
    rhumerus rradius
    rradius rwrist
    rwrist rhand rthumb
    rhand rfingers
  end

#!OML:ASF G:\ViconDB\ViconDB\414\test\team2\shane.ASF
:FULLY-SPECIFIED
:DEGREES
50
root -7.48531 16.9189 -13.9887 -4.006 -8.70197 -5.36132
lowerback 9.09406 3.11329 2.80792
upperback 2.11303 4.38441 -0.261362
thorax -2.66094 2.16462 -2.32668
lowerneck -17.6396 -0.716471 -4.067
upperneck 21.5961 -2.09302 9.08624
head 9.91924 -0.246985 3.60298
rclavicle 2.48978e-014 -7.15625e-015
rhumerus -19.2758 12.8977 -97.4339
rradius 32.7937
rwrist 37.2219
rhand -31.9613 -13.4267
rfingers 7.12502
rthumb -5.21134 -43.3426
lclavicle 2.48978e-014 -7.15625e-015
lhumerus -44.2105 -1.33373 79.5197
lradius 14.2473
lwrist -28.4317
lhand -33.9058 6.54305
lfingers 7.12502
lthumb -7.08861 36.4043
rfemur 9.91339 -17.2241 8.03709
rtibia 53.7052
rfoot 7.44001 8.21381
rtoes -10.5903
lfemur -7.61127 23.3497 -16.1131
ltibia 27.4587
lfoot -20.0982 -18.766
ltoes -7.38761
51
root -7.48523 16.9296 -13.8448 -4.38767 -8.09873 -5.31275
lowerback 9.38426 2.95698 2.58327
upperback 2.20683 4.16499 -0.17059
thorax -2.75989 2.05553 -2.10003
lowerneck -17.5366 -0.660461 -3.98863
upperneck 21.4809 -1.94185 8.7303
head 9.84194 -0.215092 3.47805
rclavicle -1.54058e-014 1.59028e-015
rhumerus -19.9267 12.7507 -97.005
rradius 32.1319
rwrist 37.5956
rhand -31.6002 -13.4339
rfingers 7.12502
rthumb -4.86274 -43.3581
lclavicle -1.54058e-014 1.59028e-015
lhumerus -42.9771 -0.341719 79.3429
lradius 13.9812
lwrist -30.2208
lhand -34.3014 6.35226
lfingers 7.12502
lthumb -7.4705 36.2004
rfemur 8.79499 -17.4763 7.79574
rtibia 56.0845
rfoot 5.33934 6.77725
rtoes -10.9595
lfemur -6.29127 23.4018 -15.9231
ltibia 26.7366
lfoot -20.2399 -19.3687
ltoes -7.36754
52
root -7.48572 16.942 -13.6975 -4.62969 -7.26304 -5.38691
lowerback 9.40161 2.73606 2.43848
upperback 2.31332 3.86033 -0.0666581
thorax -2.69205 1.90712 -1.8764
lowerneck -17.562 -0.775774 -4.51334
upperneck 21.5087 -2.05192 9.12371
head 9.87316 -0.263596 3.69495
rclavicle -1.73937e-014 -5.56597e-015
rhumerus -20.5438 12.6603 -96.5
rradius 31.3822
rwrist 38.1543
rhand -31.4426 -13.1368
rfingers 7.12502
rthumb -4.71048 -43.0644
lclavicle -1.73937e-014 -5.56597e-015
lhumerus -41.7461 -0.807145 80.0501
lradius 13.9219
lwrist -30.2118
lhand -34.6933 6.10804
lfingers 7.12502
lthumb -7.84876 35.9423
rfemur 7.65195 -17.9491 7.74738
rtibia 58.1773
rfoot 3.12519 5.67311
rtoes -10.7508
lfemur -5.12592 23.1103 -15.6591
ltibia 26.0219
lfoot -20.2934 -19.9618
ltoes -7.14101
53
root -7.48706 16.9538 -13.5477 -5.03795 -6.19056 -5.39449
lowerback 9.50347 2.46536 2.14335
upperback 2.45367 3.47757 0.0597136
thorax -2.64692 1.72004 -1.54041
lowerneck -17.4782 -0.768278 -4.64328
upperneck 21.5082 -2.01819 9.17389
head 9.85568 -0.254689 3.73888
rclavicle 2.77305e-014 -1.59028e-015
rhumerus -21.177 12.0067 -95.9287
rradius 30.662
rwrist 39.0418
rhand -31.228 -12.9992
rfingers 7.12502
rthumb -4.50332 -42.9313
lclavicle 2.77305e-014 -1.59028e-015
lhumerus -40.6781 -1.46255 80.9607
lradius 14.1789
lwrist -30.2838
lhand -35.1012 6.48464
lfingers 7.12502
lthumb -8.24247 36.3039
rfemur 6.72947 -18.5195 7.66191
rtibia 59.9818
rfoot 1.06174 4.68414
rtoes -11.0804
lfemur -3.79532 22.5818 -15.4591
ltibia 25.2868
lfoot -20.4092 -20.5537
ltoes -6.96782
54
root -7.49107 16.9684 -13.4025 -5.18288 -5.26545 -5.61174
lowerback 9.47822 2.23246 2.07413
upperback 2.50158 3.16626 0.220535
thorax -2.60892 1.56655 -1.29868
lowerneck -17.3645 -0.90083 -5.02729
upperneck 21.4218 -2.1421 9.37594
head 9.81904 -0.324348 3.85685
rclavicle 9.0447e-015 -6.36111e-015
rhumerus -21.8686 11.1467 -95.3822
rradius 29.9852
rwrist 39.6879
rhand -30.9113 -12.6241
rfingers 7.12502
rthumb -4.19749 -42.5625
lclavicle 9.0447e-015 -6.36111e-015
lhumerus -39.629 -2.59328 82.1259
lradius 14.6389
lwrist -29.1818
lhand -35.2739 6.36756
lfingers 7.12502
lthumb -8.40912 36.1802
rfemur 5.46351 -19.0097 7.94993
rtibia 61.4755
rfoot -0.542008 3.83909
rtoes -11.0017
lfemur -2.79819 21.7571 -15.1847
ltibia 24.6118
lfoot -20.6671 -20.5637
ltoes -7.10056
